<?xml version="1.0" encoding="UTF-8"?>
<svg version="1.1" xmlns="http://www.w3.org/2000/svg" width="256" height="256">
<path d="M0 0 C1.31185272 -0.00671722 2.62370544 -0.01343445 3.97531128 -0.02035522 C7.5522038 -0.03791621 11.12900043 -0.04270656 14.7059319 -0.0439868 C16.94923774 -0.0454153 19.19251975 -0.04969817 21.43581963 -0.05498123 C29.28681846 -0.07345314 37.13774969 -0.08165596 44.98876953 -0.08007812 C52.26588833 -0.07887949 59.54270922 -0.09993423 66.81975275 -0.13156545 C73.09955181 -0.15787283 79.37925449 -0.16843932 85.6591081 -0.16716731 C89.39536917 -0.16666163 93.13136552 -0.1721222 96.86757088 -0.19352341 C141.5643054 -0.4316466 141.5643054 -0.4316466 158.55834961 15.85302734 C173.33254284 33.02080495 173.28501326 53.51828436 173.22623944 75.03092003 C173.22106247 77.79144637 173.22847535 80.55188584 173.23571151 83.3124032 C173.25260049 89.83465105 173.24925607 96.35666432 173.23242188 102.87890625 C173.21550023 109.55928119 173.23136022 116.2390026 173.26364475 122.91930628 C173.29051231 128.70246976 173.29757118 134.48543197 173.28912967 140.26865149 C173.28425137 143.70191829 173.28613392 147.13479253 173.30691719 150.56800842 C173.40305745 171.50367819 172.37933626 189.72783305 157.65600586 205.97802734 C144.93176296 218.04043882 128.34581812 220.75540852 111.45898438 220.69458008 C110.0906316 220.70030031 108.72228359 220.70727086 107.35394287 220.71537781 C103.67819975 220.73314141 100.00269751 220.73217307 96.32692456 220.72643542 C93.24079716 220.72331925 90.15471444 220.72946268 87.06859344 220.73547417 C79.7799025 220.74946238 72.4913289 220.74800571 65.20263672 220.73657227 C57.72089037 220.72509426 50.23950263 220.73917429 42.7578035 220.76596874 C36.29790264 220.78822469 29.83811353 220.79474105 23.37817711 220.78889233 C19.53586501 220.78554536 15.69378267 220.78778538 11.85150337 220.80514336 C8.23558814 220.82076984 4.62019862 220.81648635 1.00430298 220.79783821 C-0.92996577 220.79247907 -2.86425906 220.80654562 -4.79847717 220.8215332 C-19.95379524 220.69595796 -35.33610532 216.20596804 -46.65649414 205.79052734 C-57.90476747 193.76464026 -61.80519723 178.53416609 -61.76391602 162.45385742 C-61.77238556 161.21974121 -61.7808551 159.985625 -61.7895813 158.71411133 C-61.80883933 155.36030883 -61.81473772 152.00706546 -61.81283379 148.65324616 C-61.81271312 145.83581852 -61.82131637 143.01844143 -61.8296113 140.20102805 C-61.84877751 133.54226811 -61.85175489 126.88363347 -61.8449707 120.22485352 C-61.83834264 113.39862164 -61.86115962 106.57293184 -61.89828444 99.74680978 C-61.92917367 93.84911561 -61.94032063 87.95159403 -61.93644762 82.05382079 C-61.93439894 78.54780209 -61.93956161 75.04220511 -61.96434021 71.53626442 C-62.09995268 50.72775301 -61.25224199 31.32719492 -46.41430664 15.20458984 C-33.47751788 3.2441625 -17.0266008 -0.01261276 0 0 Z " fill="#FDDA99" transform="translate(72.343994140625,17.70947265625)"/>
<path d="M0 0 C46.2 0 92.4 0 140 0 C140.0825 14.52 140.165 29.04 140.25 44 C140.28641602 48.57359375 140.32283203 53.1471875 140.36035156 57.859375 C140.37841797 63.47265625 140.37841797 63.47265625 140.3817749 66.10595703 C140.38789084 67.93314517 140.40190436 69.76031783 140.42230225 71.58740234 C140.45175295 74.36584228 140.45561848 77.14330144 140.45410156 79.921875 C140.468494 80.72687439 140.48288643 81.53187378 140.497715 82.36126709 C140.44563187 89.52919986 138.26685982 94.73314018 133.1875 99.8125 C126.17333234 104.62614447 120.85226121 105.44305785 112.51000977 105.40405273 C111.47820587 105.41091599 110.44640198 105.41777924 109.3833313 105.42485046 C105.98588142 105.44309316 102.58889442 105.43928447 99.19140625 105.43359375 C96.82160797 105.43815669 94.45181102 105.4434626 92.08201599 105.44947815 C87.11997088 105.45840427 82.15808676 105.45599161 77.19604492 105.44604492 C70.84634313 105.4345551 64.49719745 105.45477013 58.1475687 105.48396206 C53.25498441 105.50233305 48.36253316 105.50202976 43.46992302 105.49632454 C41.1292232 105.49617144 38.78851429 105.50220619 36.44784737 105.51461601 C33.17134112 105.52954086 29.89585958 105.51883698 26.61938477 105.50170898 C25.17823051 105.51621094 25.17823051 105.51621094 23.70796204 105.53100586 C16.68877376 105.45441022 11.31038832 103.91416424 5.9765625 99.21875 C5.30753906 98.36796875 5.30753906 98.36796875 4.625 97.5 C3.93277344 96.64921875 3.93277344 96.64921875 3.2265625 95.78125 C-0.06866758 90.99582033 -0.27695356 87.03128856 -0.22705078 81.28417969 C-0.22729185 80.39160084 -0.22753292 79.49902199 -0.2277813 78.57939529 C-0.22628989 75.69345339 -0.21106501 72.80777062 -0.1953125 69.921875 C-0.19237153 68.1388359 -0.19033142 66.35579508 -0.18920898 64.57275391 C-0.17872791 57.96514292 -0.15080546 51.35756891 -0.125 44.75 C-0.08375 29.9825 -0.0425 15.215 0 0 Z " fill="#FDFCFA" transform="translate(58,86)"/>
<path d="M0 0 C0.9178125 0.02255859 1.835625 0.04511719 2.78125 0.06835938 C5.02155189 0.12670057 7.26100172 0.21635981 9.5 0.3125 C9.5 4.6025 9.5 8.8925 9.5 13.3125 C11.15 13.3125 12.8 13.3125 14.5 13.3125 C14.995 6.8775 14.995 6.8775 15.5 0.3125 C24.74 0.3125 33.98 0.3125 43.5 0.3125 C43.995 6.2525 43.995 6.2525 44.5 12.3125 C45.82 12.6425 47.14 12.9725 48.5 13.3125 C48.83 11.6625 49.16 10.0125 49.5 8.3125 C50.16 8.3125 50.82 8.3125 51.5 8.3125 C52.84261242 14.78145075 52.84261242 14.78145075 51.25 17.25 C49.5 18.3125 49.5 18.3125 46.5 18.3125 C46.5 22.9325 46.5 27.5525 46.5 32.3125 C23.07 32.3125 -0.36 32.3125 -24.5 32.3125 C-24.5 13.42361111 -24.5 13.42361111 -20.59375 7.390625 C-14.22269906 1.06711921 -8.85770745 -0.41842368 0 0 Z " fill="#FCB91A" transform="translate(81.5,52.6875)"/>
<path d="M0 0 C8.91 0 17.82 0 27 0 C27.66 4.29 28.32 8.58 29 13 C30.32 12.67 31.64 12.34 33 12 C33.33 8.04 33.66 4.08 34 0 C37.04221065 -0.08132642 40.0822238 -0.14065374 43.125 -0.1875 C43.9809375 -0.21263672 44.836875 -0.23777344 45.71875 -0.26367188 C51.9986934 -0.33613276 56.24705351 0.48872439 61.046875 4.8671875 C61.60890625 5.52976562 62.1709375 6.19234375 62.75 6.875 C63.32234375 7.53242187 63.8946875 8.18984375 64.484375 8.8671875 C70.10510651 16.7767736 68 22.22669941 68 33 C44.57 33 21.14 33 -3 33 C-3 28.05 -3 23.1 -3 18 C-1.35 17.01 0.3 16.02 2 15 C2.41725678 11.37400578 2.41725678 11.37400578 2 8 C1.34 8 0.68 8 0 8 C0 5.36 0 2.72 0 0 Z " fill="#3FB1C2" transform="translate(131,53)"/>
<path d="M0 0 C0.33 0 0.66 0 1 0 C0.75108984 6.9694844 -1.17972692 10.95552817 -6 16 C-12.96774884 21.40356033 -18.50024388 22.30040335 -27.06347656 22.30639648 C-28.07387497 22.31472 -29.08427338 22.32304352 -30.12528992 22.33161926 C-33.46377423 22.35570328 -36.80206303 22.36449002 -40.140625 22.37109375 C-42.4660447 22.38006207 -44.79146381 22.38918395 -47.11688232 22.39845276 C-51.99248659 22.41494153 -56.86802219 22.42264255 -61.74365234 22.42553711 C-67.97903838 22.43091726 -74.21377547 22.46858351 -80.44897842 22.51428127 C-85.25323824 22.54408407 -90.0573425 22.5512614 -94.86168671 22.55226326 C-97.15971597 22.55645997 -99.45774593 22.56887207 -101.7556839 22.58978081 C-104.97725042 22.61675748 -108.197322 22.61184986 -111.41894531 22.59936523 C-112.36056015 22.61419952 -113.30217499 22.62903381 -114.27232361 22.64431763 C-121.7543519 22.56211058 -127.35414561 20.31899642 -132.91521072 15.25649166 C-136.67078064 11.39024831 -137.78183711 8.3449907 -138 3 C-137.505 3.70125 -137.01 4.4025 -136.5 5.125 C-132.76522373 9.41999271 -128.44857269 13.1838091 -123 15 C-121.55058127 15.09869019 -120.09713093 15.14343193 -118.64439392 15.15390015 C-117.3094136 15.16680084 -117.3094136 15.16680084 -115.94746399 15.17996216 C-114.97343124 15.18422211 -113.9993985 15.18848206 -112.99584961 15.19287109 C-111.96784241 15.20104858 -110.93983521 15.20922607 -109.88067627 15.21765137 C-106.47123801 15.24250546 -103.06184149 15.25902416 -99.65234375 15.2734375 C-97.90446658 15.28142302 -97.90446658 15.28142302 -96.12127876 15.28956985 C-89.9500812 15.31630527 -83.77890388 15.33567639 -77.60766602 15.35009766 C-72.50657158 15.3634228 -67.40587849 15.39124938 -62.30493164 15.43212891 C-56.14170698 15.48152161 -49.97884572 15.50622752 -43.81543159 15.51332474 C-41.47077025 15.52002638 -39.12611666 15.53521991 -36.78156853 15.55921555 C-33.4905908 15.59096771 -30.20100391 15.5908878 -26.90991211 15.58349609 C-25.95004898 15.59990143 -24.99018585 15.61630676 -24.00123596 15.63320923 C-16.00854344 15.56012449 -9.22818 13.22818 -3.5 7.5 C-2.03195522 5.0532587 -0.92478033 2.69727595 0 0 Z " fill="#F2E0BE" transform="translate(197,175)"/>
<path d="M0 0 C0.556875 0.70125 1.11375 1.4025 1.6875 2.125 C2.8321875 3.548125 2.8321875 3.548125 4 5 C5.11375 6.5159375 5.11375 6.5159375 6.25 8.0625 C9.70156791 12.12767857 14.08930252 14.54459122 19.37611008 15.37176704 C22.05428795 15.52455226 24.70570571 15.55212272 27.38818359 15.53344727 C28.39741379 15.54206284 29.40664398 15.55067841 30.44645691 15.55955505 C33.7640489 15.58215319 37.08079182 15.57548644 40.3984375 15.56640625 C42.71717579 15.57164501 45.03591195 15.57792242 47.35464478 15.58518982 C52.20821173 15.5955831 57.06148531 15.59104841 61.91503906 15.57641602 C68.11779756 15.55924174 74.31962853 15.58271348 80.52228355 15.61790562 C85.30945917 15.63992664 90.09641454 15.63842646 94.88362503 15.6301403 C97.16964357 15.62932315 99.45567866 15.63614115 101.74164963 15.65091133 C104.94601209 15.66844088 108.14872931 15.65374293 111.35302734 15.63110352 C112.28633377 15.64279572 113.2196402 15.65448792 114.18122864 15.66653442 C123.13896892 15.53855143 130.35817734 11.9776404 137 6 C136.15382697 10.04282672 135.17514917 11.8362736 132.125 14.6875 C123.86920435 20.0076346 113.668212 20.44466703 104.13671875 20.328125 C102.52238701 20.32531525 102.52238701 20.32531525 100.8754425 20.32244873 C98.62257747 20.31578166 96.36972293 20.30197564 94.11694336 20.28125 C90.6787635 20.24992039 87.24104335 20.2402512 83.80273438 20.234375 C81.60155693 20.22520956 79.40038412 20.21483525 77.19921875 20.203125 C76.17930344 20.19887512 75.15938812 20.19462524 74.10856628 20.19024658 C68.97154924 20.13893101 64.06338126 19.88120228 59 19 C59 19.66 59 20.32 59 21 C44.6249024 21.22857929 30.11438469 20.96170695 16 18 C14.92492187 17.78730469 14.92492187 17.78730469 13.828125 17.5703125 C10.75136659 16.61046906 9.14172467 14.34569845 7 12 C6.19949219 11.15308594 6.19949219 11.15308594 5.3828125 10.2890625 C2.38129478 7.00031821 0.28102418 4.6368989 0 0 Z " fill="#DF994F" transform="translate(58,181)"/>
<path d="M0 0 C1.29461655 0.00222061 2.58923309 0.00444122 3.92308044 0.00672913 C4.99131546 0.00651009 4.99131546 0.00651009 6.08113098 0.00628662 C8.4457143 0.00698581 10.81021979 0.01477846 13.17478943 0.02259827 C14.81003781 0.02446243 16.44528675 0.02588634 18.08053589 0.02688599 C22.39273103 0.03071134 26.7048927 0.04054177 31.01707458 0.05158997 C35.41404263 0.06180371 39.81101607 0.06638353 44.20799255 0.07142639 C52.84147149 0.08216402 61.47492317 0.09924065 70.10838318 0.12025452 C70.49057085 1.77640109 70.8223342 3.44482476 71.10838318 5.12025452 C70.10838318 6.12025452 70.10838318 6.12025452 67.21676636 6.24050903 C65.92214981 6.23828842 64.62753326 6.23606781 63.29368591 6.23377991 C62.2254509 6.23399895 62.2254509 6.23399895 61.13563538 6.23422241 C58.77105206 6.23352322 56.40654656 6.22573058 54.04197693 6.21791077 C52.40672855 6.21604661 50.77147961 6.2146227 49.13623047 6.21362305 C44.82403533 6.20979769 40.51187365 6.19996727 36.19969177 6.18891907 C31.80272372 6.17870532 27.40575029 6.17412551 23.0087738 6.16908264 C14.37529487 6.15834501 5.74184318 6.14126839 -2.89161682 6.12025452 C-3.27380449 4.46410794 -3.60556784 2.79568427 -3.89161682 1.12025452 C-2.89161682 0.12025452 -2.89161682 0.12025452 0 0 Z " fill="#DEDDDD" transform="translate(107.89161682128906,161.87974548339844)"/>
<path d="M0 0 C1.29461655 0.00222061 2.58923309 0.00444122 3.92308044 0.00672913 C4.99131546 0.00651009 4.99131546 0.00651009 6.08113098 0.00628662 C8.4457143 0.00698581 10.81021979 0.01477846 13.17478943 0.02259827 C14.81003781 0.02446243 16.44528675 0.02588634 18.08053589 0.02688599 C22.39273103 0.03071134 26.7048927 0.04054177 31.01707458 0.05158997 C35.41404263 0.06180371 39.81101607 0.06638353 44.20799255 0.07142639 C52.84147149 0.08216402 61.47492317 0.09924065 70.10838318 0.12025452 C70.49057085 1.77640109 70.8223342 3.44482476 71.10838318 5.12025452 C70.10838318 6.12025452 70.10838318 6.12025452 67.21676636 6.24050903 C65.92214981 6.23828842 64.62753326 6.23606781 63.29368591 6.23377991 C62.2254509 6.23399895 62.2254509 6.23399895 61.13563538 6.23422241 C58.77105206 6.23352322 56.40654656 6.22573058 54.04197693 6.21791077 C52.40672855 6.21604661 50.77147961 6.2146227 49.13623047 6.21362305 C44.82403533 6.20979769 40.51187365 6.19996727 36.19969177 6.18891907 C31.80272372 6.17870532 27.40575029 6.17412551 23.0087738 6.16908264 C14.37529487 6.15834501 5.74184318 6.14126839 -2.89161682 6.12025452 C-3.27380449 4.46410794 -3.60556784 2.79568427 -3.89161682 1.12025452 C-2.89161682 0.12025452 -2.89161682 0.12025452 0 0 Z " fill="#DEDDDD" transform="translate(107.89161682128906,136.87974548339844)"/>
<path d="M0 0 C1.29461655 0.00222061 2.58923309 0.00444122 3.92308044 0.00672913 C4.99131546 0.00651009 4.99131546 0.00651009 6.08113098 0.00628662 C8.4457143 0.00698581 10.81021979 0.01477846 13.17478943 0.02259827 C14.81003781 0.02446243 16.44528675 0.02588634 18.08053589 0.02688599 C22.39273103 0.03071134 26.7048927 0.04054177 31.01707458 0.05158997 C35.41404263 0.06180371 39.81101607 0.06638353 44.20799255 0.07142639 C52.84147149 0.08216402 61.47492317 0.09924065 70.10838318 0.12025452 C70.49057085 1.77640109 70.8223342 3.44482476 71.10838318 5.12025452 C70.10838318 6.12025452 70.10838318 6.12025452 67.21676636 6.24050903 C65.92214981 6.23828842 64.62753326 6.23606781 63.29368591 6.23377991 C62.2254509 6.23399895 62.2254509 6.23399895 61.13563538 6.23422241 C58.77105206 6.23352322 56.40654656 6.22573058 54.04197693 6.21791077 C52.40672855 6.21604661 50.77147961 6.2146227 49.13623047 6.21362305 C44.82403533 6.20979769 40.51187365 6.19996727 36.19969177 6.18891907 C31.80272372 6.17870532 27.40575029 6.17412551 23.0087738 6.16908264 C14.37529487 6.15834501 5.74184318 6.14126839 -2.89161682 6.12025452 C-3.27380449 4.46410794 -3.60556784 2.79568427 -3.89161682 1.12025452 C-2.89161682 0.12025452 -2.89161682 0.12025452 0 0 Z " fill="#DCDCDC" transform="translate(107.89161682128906,111.87974548339844)"/>
<path d="M0 0 C2.14236762 0.20649326 4.2883841 0.38304131 6.4375 0.5 C6.7675 0.17 7.0975 -0.16 7.4375 -0.5 C9.6230723 -0.60082694 11.81210813 -0.62964028 14 -0.625 C15.79630859 -0.62886719 15.79630859 -0.62886719 17.62890625 -0.6328125 C20.8512933 -0.52044208 23.94220188 -0.18760093 27.13256836 0.24609375 C32.04750215 0.78751215 36.99862515 0.88231378 41.9375 1.0625 C43.60039063 1.12727539 43.60039063 1.12727539 45.296875 1.19335938 C48.01031506 1.29862214 50.72383417 1.40075846 53.4375 1.5 C53.4375 0.84 53.4375 0.18 53.4375 -0.5 C54.4275 -0.17 55.4175 0.16 56.4375 0.5 C58.26965356 0.56898169 60.10418243 0.58467723 61.9375 0.5625 C63.37609375 0.54896484 63.37609375 0.54896484 64.84375 0.53515625 C66.12765625 0.51775391 66.12765625 0.51775391 67.4375 0.5 C70.54442271 0.5 73.65093736 0.51783982 76.7578125 0.53515625 C79.35937424 0.54448562 81.96093679 0.55359054 84.5625 0.5625 C86.50382812 0.57506836 86.50382812 0.57506836 88.484375 0.58789062 C95.22680396 0.60505567 101.75686324 0.42827229 108.4375 -0.5 C108.1075 0.49 107.7775 1.48 107.4375 2.5 C65.5275 2.5 23.6175 2.5 -19.5625 2.5 C-19.5625 2.17 -19.5625 1.84 -19.5625 1.5 C-18.79164062 1.43941406 -18.02078125 1.37882813 -17.2265625 1.31640625 C-15.72222656 1.19072266 -15.72222656 1.19072266 -14.1875 1.0625 C-13.18976563 0.98128906 -12.19203125 0.90007812 -11.1640625 0.81640625 C-2.48092839 -0.2396506 -2.48092839 -0.2396506 0 0 Z " fill="#FCC990" transform="translate(83.5625,235.5)"/>
<path d="M0 0 C0.66 0 1.32 0 2 0 C2.200868 11.15315478 2.38450548 22.30645062 2.54658794 33.46024036 C2.62239405 38.6402604 2.70397164 43.82005128 2.79907227 48.99975586 C2.8907555 54.00519894 2.96684286 59.01066537 3.03244972 64.01651573 C3.06006665 65.91940741 3.0931554 67.82222837 3.13199425 69.72492409 C3.61566918 93.84597478 3.61566918 93.84597478 -3 102 C-3 99 -3 99 -2.01992798 96.88728333 C-0.59014523 92.83975451 -0.69184886 89.06681285 -0.68115234 84.8034668 C-0.67110672 83.88590103 -0.6610611 82.96833527 -0.65071106 82.02296448 C-0.61988802 78.99838878 -0.60284626 75.97390157 -0.5859375 72.94921875 C-0.56722516 70.84885395 -0.5476517 68.74849667 -0.5272522 66.64814758 C-0.47593207 61.12609282 -0.4363056 55.60401369 -0.39910889 50.08184814 C-0.35906859 44.44447806 -0.30797633 38.80720936 -0.2578125 33.16992188 C-0.16105456 22.11335247 -0.07664925 11.05672581 0 0 Z " fill="#F3CB8F" transform="translate(198,86)"/>
<path d="M0 0 C0.99 0.33 1.98 0.66 3 1 C3 7.93 3 14.86 3 22 C-1 23 -1 23 -3 22 C-3.08710289 18.89601022 -3.14042309 15.79233452 -3.1875 12.6875 C-3.21263672 11.80642578 -3.23777344 10.92535156 -3.26367188 10.01757812 C-3.27333984 9.17001953 -3.28300781 8.32246094 -3.29296875 7.44921875 C-3.3086792 6.66893311 -3.32438965 5.88864746 -3.34057617 5.0847168 C-2.91847304 2.50096147 -1.98510058 1.63707833 0 0 Z " fill="#F7F5EE" transform="translate(94,44)"/>
<path d="M0 0 C3 1 3 1 4 3 C4.23542471 5.99444406 4.18517593 8.99729849 4.1875 12 C4.19974609 12.83273438 4.21199219 13.66546875 4.22460938 14.5234375 C4.22654297 15.32007813 4.22847656 16.11671875 4.23046875 16.9375 C4.23457764 17.66839844 4.23868652 18.39929688 4.24291992 19.15234375 C4 21 4 21 2 23 C-0.125 22.625 -0.125 22.625 -2 22 C-2.05807043 18.89591193 -2.09361914 15.7919636 -2.125 12.6875 C-2.14175781 11.80642578 -2.15851563 10.92535156 -2.17578125 10.01757812 C-2.18222656 9.17001953 -2.18867188 8.32246094 -2.1953125 7.44921875 C-2.20578613 6.66893311 -2.21625977 5.88864746 -2.22705078 5.0847168 C-2 3 -2 3 0 0 Z " fill="#FCFBF7" transform="translate(161,44)"/>
<path d="M0 0 C0.33 0.66 0.66 1.32 1 2 C1.66 2 2.32 2 3 2 C3 8.6 3 15.2 3 22 C1.68 22.33 0.36 22.66 -1 23 C-3.7633734 20.2366266 -3.28850252 18.34452557 -3.32226562 14.57226562 C-3.31904297 13.74404297 -3.31582031 12.91582031 -3.3125 12.0625 C-3.32861328 11.23814453 -3.34472656 10.41378906 -3.36132812 9.56445312 C-3.36197266 8.77103516 -3.36261719 7.97761719 -3.36328125 7.16015625 C-3.36626221 6.43449463 -3.36924316 5.70883301 -3.37231445 4.96118164 C-2.90261704 2.48703125 -1.89662572 1.591962 0 0 Z " fill="#FBFAF6" transform="translate(128,44)"/>
<path d="M0 0 C2 3 2 3 1.8125 5.5 C0.91748958 8.25387823 0.46683286 9.46886237 -2 11 C-5.64734979 10.77669287 -7.38372835 10.61627165 -10 8 C-10.32954432 4.90228335 -10.45334601 2.82668977 -8.9375 0.0625 C-5.78433176 -1.66665678 -3.37491745 -0.8590699 0 0 Z " fill="#DCDBDB" transform="translate(91,160)"/>
<path d="M0 0 C1 1 1 1 1.25 4.375 C1 8 1 8 -0.125 10 C-2.98873147 11.52732345 -4.95300191 10.84278671 -8 10 C-10 8 -10 8 -10.3125 5.0625 C-10 2 -10 2 -8.9375 0.0625 C-5.84787273 -1.63181173 -3.32782582 -0.73951685 0 0 Z " fill="#DCDBDB" transform="translate(91,135)"/>
<path d="M0 0 C0 1.32 0 2.64 0 4 C-1.32 4 -2.64 4 -4 4 C-4.99 4.495 -4.99 4.495 -6 5 C-5.34 6.32 -4.68 7.64 -4 9 C-0.64404172 8.40072174 1.37801226 7.15377564 4 5 C4.21917317 7.70313576 4.32851983 9.43958382 2.9375 11.8125 C-0.13629218 13.69643714 -2.48385658 13.43180709 -6 13 C-8.4375 11.375 -8.4375 11.375 -10 9 C-10.45319325 5.82764724 -10.52990283 3.93512264 -8.9375 1.125 C-5.99772876 -0.58196395 -3.32129197 -0.18799766 0 0 Z " fill="#FDA92F" transform="translate(89,108)"/>
<path d="M0 0 C0.33 0 0.66 0 1 0 C1 1.98 1 3.96 1 6 C0.43603516 6.00410889 -0.12792969 6.00821777 -0.70898438 6.01245117 C-3.30699703 6.04569765 -5.90275923 6.1163677 -8.5 6.1875 C-9.8303125 6.19620117 -9.8303125 6.19620117 -11.1875 6.20507812 C-18.61674751 6.45089881 -23.59395113 8.55779349 -28.83984375 13.859375 C-33.1886901 21.34991463 -32.89340148 29.55933554 -33 38 C-33.33 38 -33.66 38 -34 38 C-35.10895989 19.14768184 -35.10895989 19.14768184 -29.8515625 11.921875 C-23.48280056 5.31126134 -17.13871248 3.9499872 -8.25 3.4375 C-7.20392578 3.37272461 -7.20392578 3.37272461 -6.13671875 3.30664062 C-4.42468078 3.20110404 -2.71236439 3.1001009 -1 3 C-0.67 2.01 -0.34 1.02 0 0 Z " fill="#FBEFB8" transform="translate(90,47)"/>
<path d="M0 0 C8.58 0 17.16 0 26 0 C26 0.33 26 0.66 26 1 C18.41 1.33 10.82 1.66 3 2 C3.68299412 8.33147565 3.68299412 8.33147565 4.875 11.5625 C4.936875 12.7690625 4.936875 12.7690625 5 14 C3.75053972 15.38098241 2.49752076 16.75918868 1.21484375 18.109375 C-1.2200043 21.89865621 -0.91406215 26.60935735 -1 31 C-1.66 31 -2.32 31 -3 31 C-3.13496251 28.89758397 -3.23197307 26.7927039 -3.3125 24.6875 C-3.37050781 23.51574219 -3.42851563 22.34398437 -3.48828125 21.13671875 C-3.24658203 19.58404297 -3.24658203 19.58404297 -3 18 C-0.5 16.3125 -0.5 16.3125 2 15 C2.41725678 11.37400578 2.41725678 11.37400578 2 8 C1.34 8 0.68 8 0 8 C0 5.36 0 2.72 0 0 Z " fill="#47D9AA" transform="translate(131,53)"/>
<path d="M0 0 C0.99 0.33 1.98 0.66 3 1 C2.53077871 5.53315481 1.07310522 7.39389426 -2.3125 10.375 C-3.48232422 11.43847656 -3.48232422 11.43847656 -4.67578125 12.5234375 C-7 14 -7 14 -9.21484375 13.85546875 C-11.58923904 12.71762943 -12.06957676 11.40359337 -13 9 C-10 7 -10 7 -6 7 C-4.22239242 5.48990073 -4.22239242 5.48990073 -2.75 3.5 C-1.96882813 2.52546875 -1.96882813 2.52546875 -1.171875 1.53125 C-0.78515625 1.0259375 -0.3984375 0.520625 0 0 Z " fill="#FDBD59" transform="translate(95,104)"/>
<path d="M0 0 C2.14236762 0.20649326 4.2883841 0.38304131 6.4375 0.5 C6.7675 0.17 7.0975 -0.16 7.4375 -0.5 C14.82207563 -0.84067242 22.13727492 -0.66803601 29.4375 0.5 C29.4375 0.83 29.4375 1.16 29.4375 1.5 C13.09990221 2.56508204 -3.19459915 2.61077817 -19.5625 2.5 C-19.5625 2.17 -19.5625 1.84 -19.5625 1.5 C-18.79164062 1.43941406 -18.02078125 1.37882813 -17.2265625 1.31640625 C-15.72222656 1.19072266 -15.72222656 1.19072266 -14.1875 1.0625 C-13.18976563 0.98128906 -12.19203125 0.90007812 -11.1640625 0.81640625 C-2.48092839 -0.2396506 -2.48092839 -0.2396506 0 0 Z " fill="#FDC079" transform="translate(83.5625,235.5)"/>
<path d="M0 0 C0.2475 0.639375 0.495 1.27875 0.75 1.9375 C1.81562433 4.18741541 1.81562433 4.18741541 4.125 4.75 C4.74375 4.8325 5.3625 4.915 6 5 C6.33 3.35 6.66 1.7 7 0 C7.66 0 8.32 0 9 0 C10.32850242 6.40096618 10.32850242 6.40096618 8.9375 8.9375 C6.13281671 10.47555213 4.14485925 10.39310741 1 10 C-0.875 8.8125 -0.875 8.8125 -2 7 C-2.3125 4.4375 -2.3125 4.4375 -2 2 C-1.34 1.34 -0.68 0.68 0 0 Z " fill="#938616" transform="translate(124,61)"/>
<path d="M0 0 C0.33 0 0.66 0 1 0 C1 1.65 1 3.3 1 5 C2.65 5 4.3 5 6 5 C6.33 3.35 6.66 1.7 7 0 C7.66 0 8.32 0 9 0 C10.32850242 6.40096618 10.32850242 6.40096618 8.9375 8.9375 C6.13281671 10.47555213 4.14485925 10.39310741 1 10 C-0.875 8.8125 -0.875 8.8125 -2 7 C-2.3125 4.4375 -2.3125 4.4375 -2 2 C-1.34 1.34 -0.68 0.68 0 0 Z " fill="#A78713" transform="translate(90,61)"/>
<path d="M0 0 C0.2475 0.639375 0.495 1.27875 0.75 1.9375 C1.81562433 4.18741541 1.81562433 4.18741541 4.125 4.75 C4.74375 4.8325 5.3625 4.915 6 5 C6.66 3.35 7.32 1.7 8 0 C8.99 0.66 9.98 1.32 11 2 C11.43566323 4.83181098 11.39684676 6.36063578 9.875 8.8125 C7.12844028 10.55198782 5.18153026 10.39769128 2 10 C0.0625 8.9375 0.0625 8.9375 -1 7 C-0.6875 3.3125 -0.6875 3.3125 0 0 Z " fill="#2B6884" transform="translate(157,61)"/>
<path d="M0 0 C0.33 0 0.66 0 1 0 C1 1.98 1 3.96 1 6 C-8.24 6 -17.48 6 -27 6 C-27 4.35 -27 2.7 -27 1 C-26.34 1.66 -25.68 2.32 -25 3 C-22.47622345 3.27808217 -22.47622345 3.27808217 -19.5546875 3.1953125 C-18.47832031 3.18886719 -17.40195313 3.18242188 -16.29296875 3.17578125 C-15.16503906 3.15902344 -14.03710938 3.14226563 -12.875 3.125 C-11.73933594 3.11597656 -10.60367188 3.10695312 -9.43359375 3.09765625 C-6.62218701 3.07403098 -3.81119702 3.04109013 -1 3 C-0.67 2.01 -0.34 1.02 0 0 Z " fill="#FCECAF" transform="translate(124,47)"/>
<path d="M0 0 C0.66 0 1.32 0 2 0 C1.67 0.556875 1.34 1.11375 1 1.6875 C-0.18938368 4.43794976 -0.53132822 6.03974275 0 9 C0.82757813 9.39703125 1.65515625 9.7940625 2.5078125 10.203125 C3.33023438 10.79609375 4.15265625 11.3890625 5 12 C5.48828125 15.35546875 5.48828125 15.35546875 5.3125 19.1875 C5.26738281 20.45980469 5.22226563 21.73210937 5.17578125 23.04296875 C5.11777344 24.01878906 5.05976563 24.99460937 5 26 C4.34 26 3.68 26 3 26 C3 21.71 3 17.42 3 13 C1.68 12.34 0.36 11.68 -1 11 C-2 10 -2 10 -2.1875 6.625 C-2 3 -2 3 0 0 Z " fill="#EED515" transform="translate(123,59)"/>
<path d="M0 0 C1.53410812 2.03626363 3.05572085 4.077586 4.54296875 6.1484375 C8.45922844 11.45073684 12.50517386 15.3605697 18 19 C17.67 19.66 17.34 20.32 17 21 C10.2979344 16.97876064 3.2351138 11.27900605 0 4 C0 2.68 0 1.36 0 0 Z " fill="#FDC77F" transform="translate(18,209)"/>
<path d="M0 0 C9.24 0 18.48 0 28 0 C26 2 26 2 23.66162109 2.22705078 C22.70852051 2.21657715 21.75541992 2.20610352 20.7734375 2.1953125 C19.2265625 2.18564453 19.2265625 2.18564453 17.6484375 2.17578125 C16.56820312 2.15902344 15.48796875 2.14226563 14.375 2.125 C13.28703125 2.11597656 12.1990625 2.10695312 11.078125 2.09765625 C8.38519848 2.07403409 5.69270745 2.04109556 3 2 C2.67 3.98 2.34 5.96 2 8 C1.34 8 0.68 8 0 8 C0 5.36 0 2.72 0 0 Z " fill="#FDD539" transform="translate(97,53)"/>
<path d="M0 0 C1.9375 0.375 1.9375 0.375 4 1 C4.99 1 5.98 1 7 1 C6.42655063 3.86724686 6.1385485 4.8614515 4 7 C2 6.875 2 6.875 0 6 C-1.25 3.9375 -1.25 3.9375 -2 2 C-1.34 1.34 -0.68 0.68 0 0 Z " fill="#FEF7EC" transform="translate(84,111)"/>
<path d="M0 0 C0.99 1.485 0.99 1.485 2 3 C4.609621 3.38411275 7.0058074 3.60293197 9.625 3.6875 C10.33140625 3.72166016 11.0378125 3.75582031 11.765625 3.79101562 C13.50985688 3.87351308 15.25490395 3.93843335 17 4 C17 4.66 17 5.32 17 6 C11.39 6 5.78 6 0 6 C0 4.02 0 2.04 0 0 Z " fill="#E2EABD" transform="translate(165,47)"/>
<path d="M0 0 C0.556875 0.70125 1.11375 1.4025 1.6875 2.125 C2.8321875 3.548125 2.8321875 3.548125 4 5 C4.763125 6.03125 5.52625 7.0625 6.3125 8.125 C9.46984618 11.50262615 11.70398785 12.48376042 16 14 C16 14.99 16 15.98 16 17 C12 17 12 17 9.625 14.9375 C8.75875 13.968125 7.8925 12.99875 7 12 C6.19949219 11.15115234 6.19949219 11.15115234 5.3828125 10.28515625 C2.37835142 7.00037464 0.28092911 4.63533034 0 0 Z " fill="#E5A75F" transform="translate(58,181)"/>
<path d="M0 0 C1.67542976 0.28604898 3.34385343 0.61781233 5 1 C-0.49687876 3.96656949 -6.74410231 5.4036063 -13 5 C-12.34 4.67 -11.68 4.34 -11 4 C-11 3.34 -11 2.68 -11 2 C-10.28972656 1.93941406 -9.57945312 1.87882813 -8.84765625 1.81640625 C-7.46900391 1.69072266 -7.46900391 1.69072266 -6.0625 1.5625 C-5.14597656 1.48128906 -4.22945312 1.40007812 -3.28515625 1.31640625 C-1.03840268 1.23955024 -1.03840268 1.23955024 0 0 Z " fill="#FCBB75" transform="translate(206,233)"/>
<path d="M0 0 C0.33 0 0.66 0 1 0 C1.04898438 0.78246094 1.09796875 1.56492188 1.1484375 2.37109375 C1.22320312 3.38300781 1.29796875 4.39492188 1.375 5.4375 C1.44460937 6.44683594 1.51421875 7.45617188 1.5859375 8.49609375 C1.72257812 9.32238281 1.85921875 10.14867187 2 11 C2.66 11.33 3.32 11.66 4 12 C4.33 10.02 4.66 8.04 5 6 C5.33 6 5.66 6 6 6 C6 8.31 6 10.62 6 13 C4.125 13.625 4.125 13.625 2 14 C0 12 0 12 -0.1953125 9.1796875 C-0.17210938 8.08914062 -0.14890625 6.99859375 -0.125 5.875 C-0.10695313 4.77929688 -0.08890625 3.68359375 -0.0703125 2.5546875 C-0.04710938 1.71164063 -0.02390625 0.86859375 0 0 Z " fill="#F0EDDE" transform="translate(125,53)"/>
<path d="M0 0 C-0.33 0.99 -0.66 1.98 -1 3 C-2.7290774 3.02725341 -4.45828176 3.04650987 -6.1875 3.0625 C-7.63189453 3.07990234 -7.63189453 3.07990234 -9.10546875 3.09765625 C-11.85576513 3.00486622 -14.32479591 2.62111685 -17 2 C-17 1.67 -17 1.34 -17 1 C-14.02148438 1.04882812 -14.02148438 1.04882812 -11.04296875 1.09765625 C-7.24372206 0.9160479 -3.93554627 -0.08745658 0 0 Z " fill="#FDBD77" transform="translate(192,235)"/>
<path d="M0 0 C0.33 0 0.66 0 1 0 C1.05389087 1.95803507 1.09274217 3.91648909 1.125 5.875 C1.14820313 6.96554688 1.17140625 8.05609375 1.1953125 9.1796875 C1 12 1 12 -1 14 C-3.125 13.625 -3.125 13.625 -5 13 C-5 11.35 -5 9.7 -5 8 C-3.68 9.32 -2.36 10.64 -1 12 C-0.67 8.04 -0.34 4.08 0 0 Z " fill="#E7EDEC" transform="translate(164,53)"/>
<path d="M0 0 C0.66 0.33 1.32 0.66 2 1 C-1.80247803 4.226345 -5.55070439 6.77535219 -10 9 C-10.99 8.67 -11.98 8.34 -13 8 C-11.453125 7.13375 -11.453125 7.13375 -9.875 6.25 C-6.47343193 4.31020558 -3.23300283 2.20790437 0 0 Z " fill="#FCBC78" transform="translate(226,224)"/>
<path d="M0 0 C0.671875 1.7421875 0.671875 1.7421875 1 4 C-0.109375 6.0703125 -0.109375 6.0703125 -1.75 8.125 C-2.28109375 8.80820313 -2.8121875 9.49140625 -3.359375 10.1953125 C-5 12 -5 12 -8 14 C-6.46162154 10.80375738 -4.71133468 7.78394426 -2.875 4.75 C-2.33617187 3.85796875 -1.79734375 2.9659375 -1.2421875 2.046875 C-0.62730469 1.03367188 -0.62730469 1.03367188 0 0 Z " fill="#FDBF78" transform="translate(237,209)"/>
<path d="M0 0 C0.3403125 0.928125 0.3403125 0.928125 0.6875 1.875 C2.37929835 4.61410209 3.99244161 5.05024472 7 6 C7 6.33 7 6.66 7 7 C5.35 7 3.7 7 2 7 C1.67 7.66 1.34 8.32 1 9 C0.34 8.34 -0.32 7.68 -1 7 C-0.625 3.375 -0.625 3.375 0 0 Z " fill="#1D5D76" transform="translate(157,61)"/>
<path d="M0 0 C0 0.99 0 1.98 0 3 C-1 4 -1 4 -4.0625 4.0625 C-5.5165625 4.0315625 -5.5165625 4.0315625 -7 4 C-7 3.01 -7 2.02 -7 1 C-5.5459375 1.0309375 -5.5459375 1.0309375 -4.0625 1.0625 C-1.12534105 1.35618499 -1.12534105 1.35618499 0 0 Z " fill="#2A6378" transform="translate(166,67)"/>
<path d="M0 0 C0.66 0 1.32 0 2 0 C2.33 2.31 2.66 4.62 3 7 C1.68 6.34 0.36 5.68 -1 5 C-0.67 3.35 -0.34 1.7 0 0 Z " fill="#74843C" transform="translate(131,61)"/>
<path d="M0 0 C0.66 0 1.32 0 2 0 C2.33 2.31 2.66 4.62 3 7 C1.68 6.34 0.36 5.68 -1 5 C-0.67 3.35 -0.34 1.7 0 0 Z " fill="#B08A15" transform="translate(97,61)"/>
<path d="M0 0 C-0.66 1.32 -1.32 2.64 -2 4 C-3.32 4 -4.64 4 -6 4 C-5.67 3.01 -5.34 2.02 -5 1 C-3 0 -3 0 0 0 Z " fill="#868226" transform="translate(133,67)"/>
</svg>
